<?xml version="1.0" standalone="no"?>
<!DOCTYPE svg PUBLIC "-//W3C//DTD SVG 20010904//EN"
 "http://www.w3.org/TR/2001/REC-SVG-20010904/DTD/svg10.dtd">
<svg version="1.0" xmlns="http://www.w3.org/2000/svg"
 width="95.000000pt" height="95.000000pt" viewBox="0 0 95.000000 95.000000"
 preserveAspectRatio="xMidYMid meet">
<metadata>
Created by potrace 1.11, written by Peter Selinger 2001-2013
</metadata>
<g transform="translate(0.000000,95.000000) scale(0.100000,-0.100000)"
fill="#000000" stroke="none">
<path d="M101 876 c-49 -27 -50 -37 -51 -404 l0 -344 29 -29 29 -29 352 0 352
0 29 29 29 29 0 341 c0 366 -2 381 -51 407 -39 20 -682 20 -718 0z m712 -35
c15 -12 17 -50 17 -360 0 -257 -3 -350 -12 -359 -19 -19 -701 -17 -717 2 -8 9
-11 113 -9 362 l3 348 25 13 c37 19 670 14 693 -6z"/>
<path d="M307 604 c-4 -4 -7 -22 -7 -41 0 -27 4 -33 21 -33 17 0 20 5 17 37
-3 35 -17 51 -31 37z"/>
<path d="M466 603 c-3 -3 -6 -39 -6 -80 0 -71 -1 -73 -25 -73 -16 0 -25 -6
-25 -15 0 -18 50 -21 68 -3 7 7 12 43 12 89 0 72 -8 98 -24 82z"/>
<path d="M587 604 c-4 -4 -7 -22 -7 -41 0 -27 4 -33 21 -33 17 0 20 5 17 37
-3 35 -17 51 -31 37z"/>
<path d="M355 350 c-3 -5 -3 -15 0 -20 10 -16 74 -40 105 -40 31 0 95 24 105
40 13 21 -6 30 -35 15 -37 -19 -110 -19 -136 0 -23 17 -31 18 -39 5z"/>
</g>
</svg>
